# xmcd CD database file
#
# Track frame offsets:
#	150
#	15253
#	28685
#	44255
#	61770
#	79848
#	94700
#	111863
#	131410
#	144085
#	159625
#	176778
#	197458
#	215580
#
# Disc length: 3107 seconds
#
# Revision: 2
# Processed by: cddbd v1.5PL3 Copyright (c) Steve Scherf et al.
# Submitted via: CDex 1.50
#
DISCID=b00c210e
DTITLE=THUNDERHEAD - Behind The Eight Ball
DYEAR=1990
DGENRE=Hard Rock
TTITLE0=Behind The Eight Ball
TTITLE1=Ready To Roll
TTITLE2=Take It To The Highway
TTITLE3=(You Don't Keep Me) Satisfied
TTITLE4=The Fire's Burning
TTITLE5=Let Go
TTITLE6=Open All Night
TTITLE7=Life In The City
TTITLE8=Just Another Lover
TTITLE9=Straight Shooter
TTITLE10=Take Me To The Limit
TTITLE11=Beyond The Universe
TTITLE12=Take It To The Highway (Remix)
TTITLE13=Alcohol (LIVE)
EXTD=YEAR: 1990
EXTT0=
EXTT1=
EXTT2=
EXTT3=
EXTT4=
EXTT5=
EXTT6=
EXTT7=
EXTT8=
EXTT9=
EXTT10=
EXTT11=
EXTT12=
EXTT13=
PLAYORDER=
